<svg width="21" height="20" viewBox="0 0 21 20" fill="none" xmlns="http://www.w3.org/2000/svg">
<path d="M9.60091 0.85958C9.90075 -0.0606967 11.2027 -0.0606959 11.5025 0.859581L13.2536 6.23398C13.3877 6.64561 13.7715 6.92418 14.2044 6.92418H19.8652C20.8346 6.92418 21.2369 8.16521 20.4519 8.73398L15.877 12.0486C15.5256 12.3033 15.3785 12.7555 15.5129 13.1682L17.2615 18.5349C17.5615 19.4557 16.5082 20.2227 15.724 19.6544L11.1384 16.3321C10.7884 16.0784 10.315 16.0784 9.96499 16.3321L5.37944 19.6544C4.59519 20.2227 3.5419 19.4557 3.84192 18.5348L5.59049 13.1682C5.72495 12.7555 5.57787 12.3033 5.22641 12.0486L0.651534 8.73398C-0.133472 8.16521 0.268858 6.92418 1.23825 6.92418H6.89901C7.33193 6.92418 7.71569 6.64561 7.84981 6.23398L9.60091 0.85958Z" fill="#070707"/>
</svg>
